<svg width="80" height="60" viewBox="0 0 80 60" fill="none" xmlns="http://www.w3.org/2000/svg">
<path d="M0 0H80V60H0V0Z" fill="#DE2910"/>
<path d="M9.60008 22.2L15 6L20.4 22.2L6.00012 12.3H23.9999L9.60008 22.2Z" fill="#FFDE00"/>
<path d="M33.0214 6.31045L27.4642 7.54197L31.171 3.22239L30.8075 9.03598L27.7235 3.8892L33.0214 6.31045Z" fill="#FFDE00"/>
<path d="M38.6299 13.4184L33.03 12.3982L38.122 9.85444L35.5322 15.072L34.6858 9.13198L38.6299 13.4184Z" fill="#FFDE00"/>
<path d="M37.8125 23.3905L33.1157 20.1751L38.8024 19.9293L34.3098 23.6369L35.9596 17.8681L37.8125 23.3905Z" fill="#FFDE00"/>
<path d="M30.7486 29.9051L27.6581 25.1251L32.9985 27.0948L27.4225 28.7795L31.1723 24.0956L30.7486 29.9051Z" fill="#FFDE00"/>
</svg>
